<?xml version="1.0" encoding="utf-8"?>
<!-- Generator: Adobe Illustrator 19.1.0, SVG Export Plug-In . SVG Version: 6.00 Build 0)  -->
<svg version="1.1" id="Capa_1" xmlns="http://www.w3.org/2000/svg" xmlns:xlink="http://www.w3.org/1999/xlink" x="0px" y="0px"
	 viewBox="-41 164.9 512 512" style="enable-background:new -41 164.9 512 512;" xml:space="preserve">
<style type="text/css">
	.st0{fill:#FFFFFF;}
</style>
<g>
	<path class="st0" d="M215,164.9c-141.4,0-256,114.6-256,256c0,141.4,114.6,256,256,256s256-114.6,256-256
		C471,279.5,356.4,164.9,215,164.9z M350.2,538.4l-20.5,20.5c-3.7,3.7-14.4,5.9-14.7,5.9c-64.8,0.6-127.3-24.9-173.2-70.8
		c-46-46-71.5-108.7-70.8-173.7c0,0,2.3-10.4,6-14.1l20.5-20.5c7.5-7.5,21.9-10.9,32-7.6l4.3,1.4c10.1,3.4,20.6,14.5,23.4,24.8
		l10.3,37.8c2.8,10.3-1,24.9-8.5,32.4l-13.7,13.7c13.4,49.7,52.5,88.8,102.2,102.3l13.7-13.7c7.5-7.5,22.2-11.3,32.4-8.5l37.8,10.3
		c10.3,2.8,21.4,13.3,24.8,23.4l1.4,4.4C361.1,516.6,357.7,531,350.2,538.4z"/>
</g>
</svg>
