<?xml version="1.0" encoding="utf-8"?>
<!-- Generator: Adobe Illustrator 19.1.0, SVG Export Plug-In . SVG Version: 6.00 Build 0)  -->
<svg version="1.1" id="Laag_1" xmlns="http://www.w3.org/2000/svg" xmlns:xlink="http://www.w3.org/1999/xlink" x="0px" y="0px"
	 viewBox="0 0 200 200" style="enable-background:new 0 0 200 200;" xml:space="preserve">
<style type="text/css">
	.st0{fill:#010202;}
</style>
<g>
	<polygon id="XMLID_1431_" class="st0" points="0,50 0,0 50,0 	"/>
	<polygon id="XMLID_1417_" class="st0" points="200,150 200,200 150,200 	"/>
	
		<rect id="XMLID_2457_" x="112.1" y="146.3" transform="matrix(0.7071 0.7071 -0.7071 0.7071 156.25 -64.7208)" class="st0" width="88.4" height="20"/>
	
		<rect id="XMLID_1416_" x="-0.4" y="33.8" transform="matrix(0.7071 0.7071 -0.7071 0.7071 43.75 -18.1218)" class="st0" width="88.4" height="20"/>
	<polygon id="XMLID_2455_" class="st0" points="150,0 200,0 200,50 	"/>
	<polygon id="XMLID_1415_" class="st0" points="50,200 0,200 0,150 	"/>
	
		<rect id="XMLID_1414_" x="33.8" y="112.1" transform="matrix(0.7071 0.7071 -0.7071 0.7071 123.2995 14.8287)" class="st0" width="20" height="88.4"/>
	
		<rect id="XMLID_1413_" x="146.3" y="-0.4" transform="matrix(0.7071 0.7071 -0.7071 0.7071 76.7004 -97.6713)" class="st0" width="20" height="88.4"/>
</g>
</svg>
