<?xml version="1.0" encoding="utf-8"?>
<!-- Generator: Adobe Illustrator 19.1.0, SVG Export Plug-In . SVG Version: 6.00 Build 0)  -->
<svg version="1.1" id="Laag_1" xmlns="http://www.w3.org/2000/svg" xmlns:xlink="http://www.w3.org/1999/xlink" x="0px" y="0px"
	 viewBox="68 52.5 420 180" style="enable-background:new 68 52.5 420 180;" xml:space="preserve">
<style type="text/css">
	.st0{fill:#7F8182;}
	.st1{fill:#76B94D;}
</style>
<g>
	<g>
		<path class="st0" d="M201.3,139.2V88.3V69c0-14.4,16.2-14.4,23.2-14.4s27,0,27,0v18.3h-27v15.4h20v16.9h-20v34.1h-23.2V139.2z"/>
		<rect x="261.7" y="82.4" class="st0" width="19.7" height="56.9"/>
		<circle class="st0" cx="271.6" cy="63.7" r="11.2"/>
		<polygon class="st0" points="301.8,63.7 321.8,63.7 321.8,82.4 329.2,82.4 329.2,96.9 321.8,96.9 321.8,139.2 301.8,139.2 
			301.8,96.9 295.1,96.9 295.1,82.4 301.8,82.4 		"/>
		<path class="st0" d="M338.3,88.3h28.4v16.5c0,9.8-14.2,13-14.2,22.8h14.2v11.6h-28.4v-10.9c0-18.6,13-13.7,14.2-26.9h-14.2V88.3z"
			/>
		<path class="st0" d="M399.5,88.3h-15c-4.4,0-8,3.6-8,8v35c0,4.4,3.6,8,8,8h15c4.4,0,8-3.6,8-8v-35
			C407.5,91.9,403.9,88.3,399.5,88.3z M393.8,125.9c0,1-0.8,1.8-1.8,1.8s-1.8-0.8-1.8-1.8v-24.2c0-1,0.8-1.8,1.8-1.8
			s1.8,0.8,1.8,1.8V125.9z"/>
		<path class="st0" d="M485.1,88.3v13.2h-13.3v8.1h13.3v10.2h-13.3v9.4h13.3v10.1h-20.8c-8,0-8-5.9-8-5.9V95c0-6.7,8.7-6.7,8.7-6.7
			S485.1,88.3,485.1,88.3z"/>
		<path class="st0" d="M438.7,88.3h-22.5v50.9H431h0.2v-38.1c0-0.6,0.5-1.2,1.2-1.2s1.2,0.5,1.2,1.2v38.2h15V96.4
			C448.5,88.3,438.7,88.3,438.7,88.3z"/>
	</g>
	<g>
		<path class="st1" d="M346.1,79.2h-5.5l-1.3,3.4h-1.1l4.6-12.2h1l4.6,12.2h-1.1L346.1,79.2z M340.9,78.3h4.9l-2.4-6.6L340.9,78.3z"
			/>
		<path class="st1" d="M355.4,80.3c0-0.5-0.2-0.9-0.6-1.2c-0.4-0.3-1-0.5-1.8-0.7c-0.8-0.2-1.4-0.4-1.9-0.6c-0.4-0.2-0.8-0.5-1-0.8
			c-0.2-0.3-0.3-0.7-0.3-1.2c0-0.7,0.3-1.3,0.9-1.8s1.4-0.7,2.3-0.7c1,0,1.8,0.2,2.4,0.7s0.9,1.1,0.9,2h-1c0-0.5-0.2-1-0.7-1.3
			c-0.4-0.4-1-0.5-1.7-0.5s-1.2,0.1-1.6,0.4s-0.6,0.7-0.6,1.1c0,0.5,0.2,0.8,0.5,1c0.3,0.2,0.9,0.5,1.8,0.7c0.9,0.2,1.5,0.4,2,0.7
			c0.5,0.3,0.8,0.5,1,0.8c0.2,0.3,0.3,0.7,0.3,1.2c0,0.8-0.3,1.4-0.9,1.8c-0.6,0.5-1.4,0.7-2.4,0.7c-1.1,0-1.9-0.3-2.6-0.8
			s-1-1.2-1-1.9h1c0,0.6,0.3,1,0.7,1.4c0.5,0.3,1.1,0.5,1.8,0.5c0.7,0,1.3-0.2,1.7-0.5C355.2,81.1,355.4,80.8,355.4,80.3z"/>
		<path class="st1" d="M364,80.3c0-0.5-0.2-0.9-0.6-1.2c-0.4-0.3-1-0.5-1.8-0.7c-0.8-0.2-1.4-0.4-1.9-0.6c-0.4-0.2-0.8-0.5-1-0.8
			c-0.2-0.3-0.3-0.7-0.3-1.2c0-0.7,0.3-1.3,0.9-1.8s1.4-0.7,2.3-0.7c1,0,1.8,0.2,2.4,0.7s0.9,1.1,0.9,2h-1c0-0.5-0.2-1-0.7-1.3
			c-0.4-0.4-1-0.5-1.7-0.5s-1.2,0.1-1.6,0.4s-0.6,0.7-0.6,1.1c0,0.5,0.2,0.8,0.5,1c0.3,0.2,0.9,0.5,1.8,0.7c0.9,0.2,1.5,0.4,2,0.7
			c0.5,0.3,0.8,0.5,1,0.8c0.2,0.3,0.3,0.7,0.3,1.2c0,0.8-0.3,1.4-0.9,1.8c-0.6,0.5-1.4,0.7-2.4,0.7c-1.1,0-1.9-0.3-2.6-0.8
			s-1-1.2-1-1.9h1c0,0.6,0.3,1,0.7,1.4c0.5,0.3,1.1,0.5,1.8,0.5c0.7,0,1.3-0.2,1.7-0.5C363.8,81.1,364,80.8,364,80.3z"/>
		<path class="st1" d="M370.8,82.8c-0.8,0-1.5-0.2-2.1-0.6s-1.1-0.9-1.4-1.6s-0.5-1.4-0.5-2.3v-0.4c0-0.9,0.2-1.7,0.5-2.3
			c0.3-0.7,0.8-1.2,1.4-1.6s1.3-0.6,2-0.6c1.1,0,2,0.4,2.6,1.1c0.6,0.7,1,1.8,1,3.1v0.6h-6.5v0.1c0,1,0.3,1.9,0.9,2.6
			c0.6,0.7,1.3,1,2.2,1c0.5,0,1-0.1,1.4-0.3c0.4-0.2,0.8-0.5,1.1-0.9l0.6,0.5C373.3,82.2,372.2,82.8,370.8,82.8z M370.6,74.2
			c-0.8,0-1.4,0.3-1.9,0.8c-0.5,0.6-0.8,1.3-0.9,2.2h5.4v-0.1c0-0.9-0.3-1.6-0.7-2.1C372,74.5,371.4,74.2,370.6,74.2z"/>
		<path class="st1" d="M377.1,73.5V75c0.3-0.6,0.8-1,1.3-1.3c0.5-0.3,1.1-0.4,1.7-0.4c1,0,1.7,0.3,2.2,0.8s0.7,1.4,0.7,2.5v5.9h-1
			v-5.9c0-0.8-0.2-1.4-0.5-1.8c-0.3-0.4-0.9-0.6-1.6-0.6c-0.6,0-1.2,0.2-1.6,0.6c-0.4,0.4-0.8,0.9-1.1,1.6v6.2h-1v-9L377.1,73.5
			L377.1,73.5z"/>
		<path class="st1" d="M389,82.8c-0.8,0-1.5-0.2-2.1-0.6s-1.1-0.9-1.4-1.6s-0.5-1.4-0.5-2.3v-0.4c0-0.9,0.2-1.7,0.5-2.3
			c0.3-0.7,0.8-1.2,1.4-1.6s1.3-0.6,2-0.6c1.1,0,2,0.4,2.6,1.1c0.6,0.7,1,1.8,1,3.1v0.6H386v0.1c0,1,0.3,1.9,0.9,2.6
			c0.6,0.7,1.3,1,2.2,1c0.5,0,1-0.1,1.4-0.3c0.4-0.2,0.8-0.5,1.1-0.9l0.6,0.5C391.5,82.2,390.4,82.8,389,82.8z M388.9,74.2
			c-0.8,0-1.4,0.3-1.9,0.8c-0.5,0.6-0.8,1.3-0.9,2.2h5.4v-0.1c0-0.9-0.3-1.6-0.7-2.1C390.2,74.5,389.6,74.2,388.9,74.2z"/>
		<path class="st1" d="M394,78c0-1.4,0.3-2.5,0.9-3.4c0.6-0.8,1.5-1.2,2.6-1.2c1.2,0,2.2,0.5,2.8,1.4v-5.1h1v12.8h-0.9v-1.2
			c-0.6,0.9-1.6,1.4-2.8,1.4c-1,0-1.9-0.4-2.5-1.3c-0.6-0.8-1-2-1-3.4l0,0H394z M395,78.2c0,1.2,0.2,2.1,0.7,2.7c0.5,0.7,1.1,1,2,1
			c1.2,0,2.1-0.5,2.6-1.6v-4.2c-0.5-1.2-1.4-1.8-2.6-1.8c-0.8,0-1.5,0.3-2,1C395.2,75.9,395,76.9,395,78.2z"/>
		<path class="st1" d="M407.4,82.8c-0.8,0-1.5-0.2-2.1-0.6s-1.1-0.9-1.4-1.6s-0.5-1.4-0.5-2.3v-0.4c0-0.9,0.2-1.7,0.5-2.3
			c0.3-0.7,0.8-1.2,1.4-1.6s1.3-0.6,2-0.6c1.1,0,2,0.4,2.6,1.1c0.6,0.7,1,1.8,1,3.1v0.6h-6.5v0.1c0,1,0.3,1.9,0.9,2.6
			c0.6,0.7,1.3,1,2.2,1c0.5,0,1-0.1,1.4-0.3c0.4-0.2,0.8-0.5,1.1-0.9l0.6,0.5C409.9,82.2,408.8,82.8,407.4,82.8z M407.2,74.2
			c-0.8,0-1.4,0.3-1.9,0.8c-0.5,0.6-0.8,1.3-0.9,2.2h5.4v-0.1c0-0.9-0.3-1.6-0.7-2.1C408.6,74.5,408,74.2,407.2,74.2z"/>
		<path class="st1" d="M420,77.6h-4v-0.8h4V77.6z"/>
		<path class="st1" d="M432.9,76.8h-5.7v5h6.5v0.9h-7.6V70.4h7.5v0.9h-6.5v4.6h5.7v0.9H432.9z"/>
		<path class="st1" d="M439.9,74.4c-0.2,0-0.4-0.1-0.7-0.1c-0.6,0-1.2,0.2-1.6,0.5c-0.4,0.3-0.7,0.9-0.9,1.5v6.2h-1v-9h1v1.4
			c0.5-1.1,1.4-1.6,2.5-1.6c0.3,0,0.5,0,0.7,0.1V74.4z"/>
		<path class="st1" d="M443.4,71.2v2.3h1.9v0.8h-1.9v6c0,0.5,0.1,0.9,0.3,1.1c0.2,0.2,0.5,0.4,0.9,0.4c0.2,0,0.4,0,0.8-0.1v0.8
			c-0.3,0.1-0.6,0.1-1.1,0.1c-0.7,0-1.2-0.2-1.5-0.6c-0.3-0.4-0.5-1-0.5-1.8v-6h-1.7v-0.8h1.7v-2.3L443.4,71.2L443.4,71.2z"/>
		<path class="st1" d="M450.2,81.2l2.7-7.7h1l-3.4,9h-0.8l-3.4-9h1L450.2,81.2z"/>
		<path class="st1" d="M459,82.8c-0.8,0-1.5-0.2-2.1-0.6s-1.1-0.9-1.4-1.6s-0.5-1.4-0.5-2.3v-0.4c0-0.9,0.2-1.7,0.5-2.3
			c0.3-0.7,0.8-1.2,1.4-1.6s1.3-0.6,2-0.6c1.1,0,2,0.4,2.6,1.1c0.6,0.7,1,1.8,1,3.1v0.6H456v0.1c0,1,0.3,1.9,0.9,2.6
			c0.6,0.7,1.3,1,2.2,1c0.5,0,1-0.1,1.4-0.3c0.4-0.2,0.8-0.5,1.1-0.9l0.6,0.5C461.5,82.2,460.4,82.8,459,82.8z M458.8,74.2
			c-0.8,0-1.4,0.3-1.9,0.8c-0.5,0.6-0.8,1.3-0.9,2.2h5.4v-0.1c0-0.9-0.3-1.6-0.7-2.1C460.2,74.5,459.6,74.2,458.8,74.2z"/>
		<path class="st1" d="M465.4,82.6h-1V69.7h1V82.6z"/>
		<path class="st1" d="M467.8,78c0-1.4,0.3-2.5,0.9-3.4c0.6-0.8,1.5-1.2,2.6-1.2c1.2,0,2.2,0.5,2.8,1.4v-5.1h1v12.8h-0.9v-1.2
			c-0.6,0.9-1.6,1.4-2.8,1.4c-1,0-1.9-0.4-2.5-1.3c-0.6-0.8-1-2-1-3.4l0,0H467.8z M468.8,78.2c0,1.2,0.2,2.1,0.7,2.7
			c0.5,0.7,1.1,1,2,1c1.2,0,2.1-0.5,2.6-1.6v-4.2c-0.5-1.2-1.4-1.8-2.6-1.8c-0.8,0-1.5,0.3-2,1C469,75.9,468.8,76.9,468.8,78.2z"/>
		<path class="st1" d="M481.2,82.8c-0.8,0-1.5-0.2-2.1-0.6s-1.1-0.9-1.4-1.6s-0.5-1.4-0.5-2.3v-0.4c0-0.9,0.2-1.7,0.5-2.3
			c0.3-0.7,0.8-1.2,1.4-1.6s1.3-0.6,2-0.6c1.1,0,2,0.4,2.6,1.1c0.6,0.7,1,1.8,1,3.1v0.6h-6.5v0.1c0,1,0.3,1.9,0.9,2.6
			c0.6,0.7,1.3,1,2.2,1c0.5,0,1-0.1,1.4-0.3c0.4-0.2,0.8-0.5,1.1-0.9l0.6,0.5C483.6,82.2,482.6,82.8,481.2,82.8z M481,74.2
			c-0.8,0-1.4,0.3-1.9,0.8c-0.5,0.6-0.8,1.3-0.9,2.2h5.4v-0.1c0-0.9-0.3-1.6-0.7-2.1C482.4,74.5,481.7,74.2,481,74.2z"/>
	</g>
	<g>
		<path class="st1" d="M204.4,171.7v-17.6h-3.2v-1.8h3.2V150c0-2,0.5-3.5,1.5-4.6c1-1.1,2.4-1.6,4.2-1.6c0.8,0,1.6,0.1,2.3,0.3
			l-0.2,1.8c-0.6-0.1-1.2-0.2-1.9-0.2c-1.2,0-2.1,0.4-2.8,1.1s-1,1.8-1,3.1v2.4h4.6v1.8h-4.6v17.6L204.4,171.7L204.4,171.7z"/>
		<path class="st1" d="M214.8,146.7c0-0.4,0.1-0.7,0.4-1c0.3-0.3,0.6-0.4,1.1-0.4s0.8,0.1,1.1,0.4s0.4,0.6,0.4,1
			c0,0.4-0.1,0.7-0.4,1c-0.3,0.3-0.6,0.4-1.1,0.4s-0.8-0.1-1.1-0.4C214.9,147.5,214.8,147.1,214.8,146.7z M217.3,171.7h-2.1v-19.4
			h2.1V171.7z"/>
		<path class="st1" d="M226.4,147.4v4.9h4v1.8h-4V167c0,1.1,0.2,1.9,0.6,2.4c0.4,0.5,1,0.8,1.9,0.8c0.4,0,0.9-0.1,1.7-0.2l0.1,1.7
			c-0.6,0.2-1.3,0.3-2.3,0.3c-1.5,0-2.5-0.4-3.2-1.3c-0.7-0.9-1-2.1-1-3.8V154h-3.6v-1.7h3.6v-4.9H226.4z"/>
		<path class="st1" d="M236.9,152.3l0.1,3.3c0.7-1.2,1.6-2.1,2.7-2.7c1.1-0.6,2.3-0.9,3.6-0.9c2.1,0,3.6,0.6,4.6,1.8
			s1.5,2.9,1.5,5.3v12.7h-2.1v-12.7c0-1.7-0.4-3-1.1-3.9c-0.7-0.8-1.9-1.3-3.5-1.3c-1.3,0-2.5,0.4-3.5,1.2s-1.8,1.9-2.3,3.3v13.2
			h-2.1v-19.3H236.9z"/>
		<path class="st1" d="M262.5,172c-1.6,0-3.1-0.4-4.5-1.2s-2.4-1.9-3.1-3.4s-1.1-3.1-1.1-4.9v-0.8c0-1.9,0.4-3.5,1.1-5
			c0.7-1.5,1.7-2.7,3-3.5c1.3-0.9,2.7-1.3,4.2-1.3c2.3,0,4.2,0.8,5.6,2.4c1.4,1.6,2.1,3.8,2.1,6.6v1.2H256v0.4c0,2.2,0.6,4,1.9,5.5
			c1.3,1.5,2.8,2.2,4.7,2.2c1.1,0,2.2-0.2,3-0.6c0.9-0.4,1.7-1.1,2.4-2l1.3,1C267.7,170.9,265.4,172,262.5,172z M262.1,153.8
			c-1.6,0-3,0.6-4.1,1.8s-1.8,2.8-2,4.8h11.6v-0.2c-0.1-1.9-0.6-3.4-1.6-4.5C265,154.4,263.7,153.8,262.1,153.8z"/>
		<path class="st1" d="M285.4,166.7c0-1.1-0.4-1.9-1.3-2.6c-0.9-0.6-2.1-1.1-3.8-1.5s-3-0.8-4-1.3c-0.9-0.5-1.6-1-2.1-1.7
			s-0.7-1.5-0.7-2.5c0-1.5,0.6-2.8,1.9-3.8c1.3-1,2.9-1.5,4.9-1.5c2.2,0,3.9,0.5,5.2,1.6s2,2.5,2,4.2h-2.1c0-1.1-0.5-2.1-1.4-2.8
			c-0.9-0.8-2.1-1.1-3.6-1.1c-1.4,0-2.5,0.3-3.4,0.9c-0.9,0.6-1.3,1.4-1.3,2.4s0.4,1.7,1.1,2.2s2,1,3.9,1.5c1.9,0.4,3.3,0.9,4.2,1.4
			s1.6,1.1,2.1,1.8s0.7,1.6,0.7,2.6c0,1.6-0.7,2.9-2,3.9c-1.3,1-3,1.5-5.2,1.5c-2.3,0-4.1-0.5-5.5-1.6s-2.1-2.5-2.1-4.1h2.1
			c0.1,1.3,0.6,2.2,1.6,2.9s2.3,1,3.8,1s2.7-0.3,3.6-1C285,168.6,285.4,167.7,285.4,166.7z"/>
		<path class="st1" d="M304,166.7c0-1.1-0.4-1.9-1.3-2.6c-0.9-0.6-2.1-1.1-3.8-1.5s-3-0.8-4-1.3c-0.9-0.5-1.6-1-2.1-1.7
			s-0.7-1.5-0.7-2.5c0-1.5,0.6-2.8,1.9-3.8s2.9-1.5,4.9-1.5c2.2,0,3.9,0.5,5.2,1.6s2,2.5,2,4.2H304c0-1.1-0.5-2.1-1.4-2.8
			c-0.9-0.8-2.1-1.1-3.6-1.1c-1.4,0-2.5,0.3-3.4,0.9c-0.9,0.6-1.3,1.4-1.3,2.4s0.4,1.7,1.1,2.2s2,1,3.9,1.5c1.9,0.4,3.3,0.9,4.2,1.4
			s1.6,1.1,2.1,1.8s0.7,1.6,0.7,2.6c0,1.6-0.7,2.9-2,3.9c-1.3,1-3,1.5-5.2,1.5c-2.3,0-4.1-0.5-5.5-1.6s-2.1-2.5-2.1-4.1h2.1
			c0.1,1.3,0.6,2.2,1.6,2.9s2.3,1,3.8,1s2.7-0.3,3.6-1C303.5,168.6,304,167.7,304,166.7z"/>
		<path class="st1" d="M324.2,157.5c-1-1.3-1.8-2.4-2.3-3.3c-0.5-1-0.7-2-0.7-2.9c0-1.8,0.5-3.3,1.6-4.3c1.1-1.1,2.5-1.6,4.4-1.6
			c1.7,0,3,0.5,4,1.4c1,1,1.5,2.2,1.5,3.7c0,1.7-1,3.4-3,5.1l-2.9,2.2l7.1,8.3c1.1-1.8,1.6-3.7,1.6-5.9h2c0,3-0.8,5.4-2.3,7.5
			l3.6,4.1h-2.6l-2.3-2.6c-0.9,0.9-2,1.7-3.3,2.2s-2.5,0.8-3.9,0.8c-2.5,0-4.4-0.6-5.9-1.9c-1.5-1.3-2.2-3-2.2-5.1
			c0-1.3,0.4-2.5,1.1-3.6s2.1-2.4,3.9-3.8L324.2,157.5z M327,170.2c1.1,0,2.1-0.2,3.2-0.7c1-0.5,1.9-1.1,2.7-2l-7.3-8.4l-0.3-0.3
			l-0.8,0.6c-2.3,1.9-3.5,3.8-3.5,5.5c0,1.6,0.5,2.8,1.6,3.8C323.8,169.7,325.2,170.2,327,170.2z M323.4,151.1
			c0,1.5,0.8,3.2,2.4,5.1l2.3-1.8c0.8-0.5,1.4-1.1,1.9-1.8s0.7-1.4,0.7-2.3s-0.3-1.7-1-2.3s-1.5-0.9-2.6-0.9c-1.2,0-2.1,0.4-2.8,1.1
			S323.4,150,323.4,151.1z"/>
		<path class="st1" d="M355.8,167.2l0.3,1.7l0.4-1.8l4.6-14.8h1.8l4.6,14.7l0.5,2l0.4-1.9l4-14.8h2.2l-5.6,19.3h-1.8l-5-15.3
			l-0.2-1.1l-0.2,1.1l-4.9,15.3h-1.8l-5.6-19.3h2.2L355.8,167.2z"/>
		<path class="st1" d="M386.3,172c-1.6,0-3.1-0.4-4.5-1.2c-1.3-0.8-2.4-1.9-3.1-3.4s-1.1-3.1-1.1-4.9v-0.8c0-1.9,0.4-3.5,1.1-5
			s1.7-2.7,3-3.5s2.7-1.3,4.2-1.3c2.3,0,4.2,0.8,5.6,2.4c1.4,1.6,2.1,3.8,2.1,6.6v1.2h-13.8v0.4c0,2.2,0.6,4,1.9,5.5
			s2.8,2.2,4.7,2.2c1.1,0,2.2-0.2,3-0.6c0.9-0.4,1.7-1.1,2.4-2l1.3,1C391.5,170.9,389.3,172,386.3,172z M385.9,153.8
			c-1.6,0-3,0.6-4.1,1.8s-1.8,2.8-2,4.8h11.6v-0.2c-0.1-1.9-0.6-3.4-1.6-4.5C388.8,154.4,387.5,153.8,385.9,153.8z"/>
		<path class="st1" d="M400.1,171.7H398v-27.4h2.1V171.7z"/>
		<path class="st1" d="M408.3,171.7h-2.1v-27.4h2.1V171.7z"/>
		<path class="st1" d="M416.1,152.3l0.1,3.3c0.7-1.2,1.6-2.1,2.7-2.7c1.1-0.6,2.3-0.9,3.6-0.9c2.1,0,3.6,0.6,4.6,1.8
			s1.5,2.9,1.5,5.3v12.7h-2.1v-12.7c0-1.7-0.4-3-1.1-3.9s-1.9-1.3-3.5-1.3c-1.3,0-2.5,0.4-3.5,1.2s-1.8,1.9-2.3,3.3v13.2H414v-19.3
			H416.1z"/>
		<path class="st1" d="M441.7,172c-1.6,0-3.1-0.4-4.5-1.2c-1.3-0.8-2.4-1.9-3.1-3.4s-1.1-3.1-1.1-4.9v-0.8c0-1.9,0.4-3.5,1.1-5
			s1.7-2.7,3-3.5s2.7-1.3,4.2-1.3c2.3,0,4.2,0.8,5.6,2.4c1.4,1.6,2.1,3.8,2.1,6.6v1.2h-13.8v0.4c0,2.2,0.6,4,1.9,5.5
			s2.8,2.2,4.7,2.2c1.1,0,2.2-0.2,3-0.6c0.9-0.4,1.7-1.1,2.4-2l1.3,1C446.9,170.9,444.7,172,441.7,172z M441.3,153.8
			c-1.6,0-3,0.6-4.1,1.8s-1.8,2.8-2,4.8h11.6v-0.2c-0.1-1.9-0.6-3.4-1.6-4.5C444.2,154.4,442.9,153.8,441.3,153.8z"/>
		<path class="st1" d="M464.7,166.7c0-1.1-0.4-1.9-1.3-2.6c-0.9-0.6-2.1-1.1-3.8-1.5s-3-0.8-4-1.3c-0.9-0.5-1.6-1-2.1-1.7
			s-0.7-1.5-0.7-2.5c0-1.5,0.6-2.8,1.9-3.8s2.9-1.5,4.9-1.5c2.2,0,3.9,0.5,5.2,1.6s2,2.5,2,4.2h-2.1c0-1.1-0.5-2.1-1.4-2.8
			c-0.9-0.8-2.1-1.1-3.6-1.1c-1.4,0-2.5,0.3-3.4,0.9c-0.9,0.6-1.3,1.4-1.3,2.4s0.4,1.7,1.1,2.2s2,1,3.9,1.5c1.9,0.4,3.3,0.9,4.2,1.4
			c0.9,0.5,1.6,1.1,2.1,1.8s0.7,1.6,0.7,2.6c0,1.6-0.7,2.9-2,3.9s-3,1.5-5.2,1.5c-2.3,0-4.1-0.5-5.5-1.6s-2.1-2.5-2.1-4.1h2.1
			c0.1,1.3,0.6,2.2,1.6,2.9s2.3,1,3.8,1s2.7-0.3,3.6-1C464.2,168.6,464.7,167.7,464.7,166.7z"/>
		<path class="st1" d="M483.2,166.7c0-1.1-0.4-1.9-1.3-2.6c-0.9-0.6-2.1-1.1-3.8-1.5s-3-0.8-4-1.3c-0.9-0.5-1.6-1-2.1-1.7
			s-0.7-1.5-0.7-2.5c0-1.5,0.6-2.8,1.9-3.8s2.9-1.5,4.9-1.5c2.2,0,3.9,0.5,5.2,1.6s2,2.5,2,4.2h-2.1c0-1.1-0.5-2.1-1.4-2.8
			c-0.9-0.8-2.1-1.1-3.6-1.1c-1.4,0-2.5,0.3-3.4,0.9c-0.9,0.6-1.3,1.4-1.3,2.4s0.4,1.7,1.1,2.2s2,1,3.9,1.5c1.9,0.4,3.3,0.9,4.2,1.4
			c0.9,0.5,1.6,1.1,2.1,1.8s0.7,1.6,0.7,2.6c0,1.6-0.7,2.9-2,3.9s-3,1.5-5.2,1.5c-2.3,0-4.1-0.5-5.5-1.6s-2.1-2.5-2.1-4.1h2.1
			c0.1,1.3,0.6,2.2,1.6,2.9s2.3,1,3.8,1s2.7-0.3,3.6-1C482.7,168.6,483.2,167.7,483.2,166.7z"/>
	</g>
	<g>
		<ellipse class="st1" cx="137.4" cy="81.1" rx="5.1" ry="7.9"/>
		<path class="st1" d="M144.8,87.9h7.6c0,23.9-6.6,23.9-16.5,18.3c-9.9-5.6-18.8-11.9-25.2-15.5c-6.4-3.6-7.6-4.6-10.9-1.8
			c-3.3,2.8-4.1-1.1,0-3.8c7.1-4.2,15.5,1.4,15.5,1.4c24.3,15.6,28.1,13.6,28.1,13.6S147.5,102.4,144.8,87.9z"/>
		<path class="st1" d="M126.7,54.6C94.3,54.6,68,81,68,113.4s26.3,58.7,58.7,58.7s58.7-26.3,58.7-58.7S159.1,54.6,126.7,54.6z
			 M126.7,167.5c-16.1,0-30.6-7.1-40.5-18.3c4.4-3,29.5-19.6,41.6-24.7c13.3-5.6,22.1-8.5,12.3,20.8h7.5c8-30.5,0-34.2-6.4-34.2
			c-6.2,0-48,24.3-56.4,36.6c-7.7-9.4-12.4-21.3-12.4-34.4c0-29.9,24.3-54.2,54.2-54.2s54.2,24.3,54.2,54.2S156.6,167.5,126.7,167.5
			z"/>
	</g>
</g>
</svg>
