<?xml version="1.0" encoding="utf-8"?>
<!-- Generator: Adobe Illustrator 19.1.0, SVG Export Plug-In . SVG Version: 6.00 Build 0)  -->
<svg version="1.1" id="logo_home" xmlns="http://www.w3.org/2000/svg" xmlns:xlink="http://www.w3.org/1999/xlink" x="0px" y="0px"
	 viewBox="0 0 1417.3 453.5" style="enable-background:new 0 0 1417.3 453.5;" xml:space="preserve">
<g>
	<g>
		<path class="st0" d="M450,317.7V145.9V80.7c0-48.6,54.5-48.6,78.2-48.6c23.7,0,91.2,0,91.2,0v61.6h-91.2v52.1h67.5v56.9h-67.5
			v114.9H450z"/>
		<rect x="653.8" y="125.7" class="st0" width="66.4" height="192"/>
		<circle class="st0" cx="686.9" cy="62.9" r="37.9"/>
		<polygon class="st0" points="788.8,62.9 856.4,62.9 856.4,125.7 881.3,125.7 881.3,174.9 856.4,174.9 856.4,317.7 788.8,317.7 
			788.8,174.9 766.3,174.9 766.3,125.7 788.8,125.7 		"/>
		<path class="st0" d="M912.1,145.9h96v55.7c0,33.2-48,43.8-48,77h48v39.1h-96V281c0-62.8,43.8-46.2,48-90.6h-48V145.9z"/>
		<path class="st0" d="M1118.6,145.9h-50.5c-14.8,0-26.9,12.1-26.9,26.9v118.1c0,14.8,12.1,26.9,26.9,26.9h50.5
			c14.8,0,26.9-12.1,26.9-26.9V172.7C1145.5,158,1133.4,145.9,1118.6,145.9z M1099.3,272.7c0,3.3-2.7,5.9-5.9,5.9s-5.9-2.7-5.9-5.9
			v-81.8c0-3.3,2.7-5.9,5.9-5.9s5.9,2.7,5.9,5.9V272.7z"/>
		<path class="st0" d="M1407.4,145.9v44.4h-45v27.3h45v34.5h-45v31.6h45v34h-70.3c-26.9,0-26.9-19.7-26.9-19.7c0,0,0-129.6,0-129.6
			c0-22.5,29.2-22.5,29.2-22.5H1407.4z"/>
		<path class="st0" d="M1251,145.9h-75.8v171.8h49.8h0.8V188.9c0-2.2,1.8-3.9,3.9-3.9s3.9,1.8,3.9,3.9v128.8h50.6V173.1
			C1284.1,145.9,1251,145.9,1251,145.9z"/>
	</g>
	<g>
		<path class="st0" d="M938.4,115h-18.6l-4.2,11.5h-3.6l15.5-41.1h3.3l15.5,41.1h-3.6L938.4,115z M920.8,112h16.5l-8.2-22.4
			L920.8,112z"/>
		<path class="st0" d="M969.8,118.7c0-1.7-0.7-3-2-4c-1.3-1-3.4-1.8-6.1-2.4c-2.7-0.6-4.8-1.2-6.3-2c-1.5-0.7-2.6-1.6-3.3-2.7
			s-1.1-2.4-1.1-3.9c0-2.4,1-4.4,3-6s4.6-2.4,7.7-2.4c3.4,0,6.1,0.8,8.2,2.5c2.1,1.7,3.1,3.9,3.1,6.6h-3.4c0-1.8-0.7-3.3-2.2-4.5
			c-1.5-1.2-3.4-1.8-5.7-1.8c-2.2,0-4,0.5-5.3,1.5c-1.3,1-2,2.3-2,3.8c0,1.5,0.6,2.7,1.7,3.5c1.1,0.8,3.2,1.6,6.1,2.3
			c3,0.7,5.2,1.4,6.7,2.2s2.6,1.7,3.3,2.8c0.7,1.1,1.1,2.5,1.1,4c0,2.6-1,4.6-3.1,6.2c-2.1,1.5-4.8,2.3-8.1,2.3
			c-3.6,0-6.4-0.9-8.6-2.6c-2.2-1.7-3.3-3.9-3.3-6.5h3.4c0.1,2,1,3.5,2.5,4.6c1.5,1.1,3.6,1.6,6.1,1.6c2.3,0,4.2-0.5,5.7-1.6
			C969.1,121.6,969.8,120.3,969.8,118.7z"/>
		<path class="st0" d="M999,118.7c0-1.7-0.7-3-2-4c-1.3-1-3.4-1.8-6.1-2.4c-2.7-0.6-4.8-1.2-6.3-2c-1.5-0.7-2.6-1.6-3.3-2.7
			s-1.1-2.4-1.1-3.9c0-2.4,1-4.4,3-6s4.6-2.4,7.7-2.4c3.4,0,6.1,0.8,8.2,2.5c2.1,1.7,3.1,3.9,3.1,6.6h-3.4c0-1.8-0.7-3.3-2.2-4.5
			c-1.5-1.2-3.4-1.8-5.7-1.8c-2.2,0-4,0.5-5.3,1.5c-1.3,1-2,2.3-2,3.8c0,1.5,0.6,2.7,1.7,3.5c1.1,0.8,3.2,1.6,6.1,2.3
			c3,0.7,5.2,1.4,6.7,2.2s2.6,1.7,3.3,2.8c0.7,1.1,1.1,2.5,1.1,4c0,2.6-1,4.6-3.1,6.2c-2.1,1.5-4.8,2.3-8.1,2.3
			c-3.6,0-6.4-0.9-8.6-2.6c-2.2-1.7-3.3-3.9-3.3-6.5h3.4c0.1,2,1,3.5,2.5,4.6c1.5,1.1,3.6,1.6,6.1,1.6c2.3,0,4.2-0.5,5.7-1.6
			C998.3,121.6,999,120.3,999,118.7z"/>
		<path class="st0" d="M1021.8,127.1c-2.6,0-4.9-0.6-7-1.9c-2.1-1.3-3.7-3.1-4.9-5.3s-1.7-4.8-1.7-7.7v-1.2c0-2.9,0.6-5.6,1.7-7.9
			c1.1-2.3,2.7-4.2,4.8-5.5s4.2-2,6.6-2c3.7,0,6.6,1.3,8.8,3.8c2.2,2.5,3.3,6,3.3,10.4v1.9h-21.8v0.6c0,3.5,1,6.3,3,8.6
			c2,2.3,4.5,3.5,7.5,3.5c1.8,0,3.4-0.3,4.8-1c1.4-0.7,2.6-1.7,3.8-3.2l2.1,1.6C1030.1,125.3,1026.5,127.1,1021.8,127.1z
			 M1021.2,98.3c-2.5,0-4.7,0.9-6.4,2.8c-1.7,1.9-2.8,4.4-3.2,7.5h18.3v-0.4c-0.1-2.9-0.9-5.3-2.5-7.2
			C1025.8,99.2,1023.7,98.3,1021.2,98.3z"/>
		<path class="st0" d="M1043,96l0.1,5.2c1.1-1.9,2.6-3.3,4.3-4.3c1.7-1,3.6-1.5,5.7-1.5c3.3,0,5.7,0.9,7.3,2.8
			c1.6,1.8,2.4,4.6,2.4,8.3v20h-3.4v-20.1c0-2.7-0.6-4.8-1.7-6.1c-1.1-1.3-3-2-5.5-2c-2.1,0-3.9,0.7-5.5,2s-2.8,3.1-3.6,5.3v20.9
			h-3.4V96H1043z"/>
		<path class="st0" d="M1083.4,127.1c-2.6,0-4.9-0.6-7-1.9c-2.1-1.3-3.7-3.1-4.9-5.3s-1.7-4.8-1.7-7.7v-1.2c0-2.9,0.6-5.6,1.7-7.9
			c1.1-2.3,2.7-4.2,4.8-5.5s4.2-2,6.6-2c3.7,0,6.6,1.3,8.8,3.8c2.2,2.5,3.3,6,3.3,10.4v1.9H1073v0.6c0,3.5,1,6.3,3,8.6
			c2,2.3,4.5,3.5,7.5,3.5c1.8,0,3.4-0.3,4.8-1c1.4-0.7,2.6-1.7,3.8-3.2l2.1,1.6C1091.7,125.3,1088.1,127.1,1083.4,127.1z
			 M1082.8,98.3c-2.5,0-4.7,0.9-6.4,2.8c-1.7,1.9-2.8,4.4-3.2,7.5h18.3v-0.4c-0.1-2.9-0.9-5.3-2.5-7.2
			C1087.4,99.2,1085.3,98.3,1082.8,98.3z"/>
		<path class="st0" d="M1100,111c0-4.7,1.1-8.5,3.2-11.3c2.1-2.8,5-4.2,8.6-4.2c4.1,0,7.3,1.6,9.4,4.9V83.2h3.4v43.3h-3.2l-0.1-4.1
			c-2.2,3.1-5.3,4.6-9.5,4.6c-3.5,0-6.4-1.4-8.5-4.2c-2.2-2.8-3.2-6.7-3.2-11.5V111z M1103.4,111.5c0,3.9,0.8,7,2.3,9.2
			c1.6,2.2,3.8,3.4,6.6,3.4c4.2,0,7.1-1.8,8.9-5.5v-14.3c-1.7-4-4.7-6-8.8-6c-2.8,0-5,1.1-6.6,3.3
			C1104.2,103.9,1103.4,107.2,1103.4,111.5z"/>
		<path class="st0" d="M1145.3,127.1c-2.6,0-4.9-0.6-7-1.9c-2.1-1.3-3.7-3.1-4.9-5.3s-1.7-4.8-1.7-7.7v-1.2c0-2.9,0.6-5.6,1.7-7.9
			c1.1-2.3,2.7-4.2,4.8-5.5s4.2-2,6.6-2c3.7,0,6.6,1.3,8.8,3.8c2.2,2.5,3.3,6,3.3,10.4v1.9H1135v0.6c0,3.5,1,6.3,3,8.6
			c2,2.3,4.5,3.5,7.5,3.5c1.8,0,3.4-0.3,4.8-1c1.4-0.7,2.6-1.7,3.8-3.2l2.1,1.6C1153.6,125.3,1150,127.1,1145.3,127.1z M1144.7,98.3
			c-2.5,0-4.7,0.9-6.4,2.8c-1.7,1.9-2.8,4.4-3.2,7.5h18.3v-0.4c-0.1-2.9-0.9-5.3-2.5-7.2C1149.3,99.2,1147.2,98.3,1144.7,98.3z"/>
		<path class="st0" d="M1187.9,109.8h-13.5v-2.8h13.5V109.8z"/>
		<path class="st0" d="M1231.4,106.8h-19.2v16.8h22.1v2.9h-25.5V85.4h25.4v2.9h-21.9v15.5h19.2V106.8z"/>
		<path class="st0" d="M1254.9,98.9c-0.7-0.1-1.5-0.2-2.3-0.2c-2.1,0-3.9,0.6-5.3,1.8s-2.5,2.9-3.1,5.1v21h-3.4V96h3.3l0.1,4.9
			c1.8-3.6,4.7-5.4,8.6-5.4c0.9,0,1.7,0.1,2.2,0.4L1254.9,98.9z"/>
		<path class="st0" d="M1266.9,88.2V96h6.3v2.8h-6.3v20.4c0,1.7,0.3,3,0.9,3.8c0.6,0.8,1.6,1.2,3.1,1.2c0.6,0,1.5-0.1,2.7-0.3
			l0.1,2.7c-0.9,0.3-2.1,0.5-3.6,0.5c-2.3,0-4-0.7-5-2s-1.6-3.3-1.6-5.9V98.7h-5.6V96h5.6v-7.8H1266.9z"/>
		<path class="st0" d="M1289.7,121.8L1299,96h3.5l-11.4,30.5h-2.7L1276.9,96h3.5L1289.7,121.8z"/>
		<path class="st0" d="M1319.4,127.1c-2.6,0-4.9-0.6-7-1.9c-2.1-1.3-3.7-3.1-4.9-5.3s-1.7-4.8-1.7-7.7v-1.2c0-2.9,0.6-5.6,1.7-7.9
			c1.1-2.3,2.7-4.2,4.8-5.5s4.2-2,6.6-2c3.7,0,6.6,1.3,8.8,3.8c2.2,2.5,3.3,6,3.3,10.4v1.9h-21.8v0.6c0,3.5,1,6.3,3,8.6
			c2,2.3,4.5,3.5,7.5,3.5c1.8,0,3.4-0.3,4.8-1c1.4-0.7,2.6-1.7,3.8-3.2l2.1,1.6C1327.7,125.3,1324.1,127.1,1319.4,127.1z
			 M1318.8,98.3c-2.5,0-4.7,0.9-6.4,2.8c-1.7,1.9-2.8,4.4-3.2,7.5h18.3v-0.4c-0.1-2.9-0.9-5.3-2.5-7.2
			C1323.4,99.2,1321.3,98.3,1318.8,98.3z"/>
		<path class="st0" d="M1341.2,126.5h-3.4V83.2h3.4V126.5z"/>
		<path class="st0" d="M1349,111c0-4.7,1.1-8.5,3.2-11.3c2.1-2.8,5-4.2,8.6-4.2c4.1,0,7.3,1.6,9.4,4.9V83.2h3.4v43.3h-3.2l-0.1-4.1
			c-2.2,3.1-5.3,4.6-9.5,4.6c-3.5,0-6.4-1.4-8.5-4.2c-2.2-2.8-3.2-6.7-3.2-11.5V111z M1352.4,111.5c0,3.9,0.8,7,2.3,9.2
			c1.6,2.2,3.8,3.4,6.6,3.4c4.2,0,7.1-1.8,8.9-5.5v-14.3c-1.7-4-4.7-6-8.8-6c-2.8,0-5,1.1-6.6,3.3
			C1353.2,103.9,1352.4,107.2,1352.4,111.5z"/>
		<path class="st0" d="M1394.3,127.1c-2.6,0-4.9-0.6-7-1.9c-2.1-1.3-3.7-3.1-4.9-5.3s-1.7-4.8-1.7-7.7v-1.2c0-2.9,0.6-5.6,1.7-7.9
			c1.1-2.3,2.7-4.2,4.8-5.5s4.2-2,6.6-2c3.7,0,6.6,1.3,8.8,3.8c2.2,2.5,3.3,6,3.3,10.4v1.9H1384v0.6c0,3.5,1,6.3,3,8.6
			c2,2.3,4.5,3.5,7.5,3.5c1.8,0,3.4-0.3,4.8-1c1.4-0.7,2.6-1.7,3.8-3.2l2.1,1.6C1402.6,125.3,1399,127.1,1394.3,127.1z M1393.7,98.3
			c-2.5,0-4.7,0.9-6.4,2.8c-1.7,1.9-2.8,4.4-3.2,7.5h18.3v-0.4c-0.1-2.9-0.9-5.3-2.5-7.2C1398.3,99.2,1396.2,98.3,1393.7,98.3z"/>
	</g>
	<g>
		<path class="st0" d="M460.1,427.1v-59.3h-10.8v-5.9h10.8v-7.9c0-6.7,1.7-11.8,5.1-15.4c3.4-3.6,8.1-5.4,14.2-5.4
			c2.7,0,5.3,0.3,7.7,1l-0.5,6c-2-0.5-4.2-0.7-6.6-0.7c-4,0-7.1,1.2-9.3,3.7c-2.2,2.5-3.3,6-3.3,10.5v8.1h15.6v5.9h-15.6v59.3H460.1
			z"/>
		<path class="st0" d="M495.4,343c0-1.4,0.4-2.5,1.3-3.4c0.9-0.9,2.1-1.4,3.6-1.4c1.5,0,2.7,0.5,3.6,1.4c0.9,0.9,1.4,2.1,1.4,3.4
			c0,1.4-0.5,2.5-1.4,3.4c-0.9,0.9-2.1,1.4-3.6,1.4c-1.5,0-2.7-0.5-3.6-1.4C495.8,345.5,495.4,344.4,495.4,343z M503.9,427.1h-7.2
			v-65.2h7.2V427.1z"/>
		<path class="st0" d="M534.7,345.1v16.7h13.5v5.9h-13.5v43.5c0,3.6,0.7,6.3,2,8.1c1.3,1.8,3.5,2.7,6.5,2.7c1.2,0,3.2-0.2,5.8-0.6
			l0.3,5.9c-1.9,0.7-4.5,1-7.7,1c-4.9,0-8.5-1.4-10.8-4.3c-2.3-2.9-3.4-7.1-3.4-12.7v-43.5h-12v-5.9h12v-16.7H534.7z"/>
		<path class="st0" d="M570,361.8l0.2,11.2c2.5-4,5.5-7.1,9.2-9.2c3.7-2.1,7.7-3.2,12.1-3.2c7,0,12.2,2,15.6,5.9
			c3.4,3.9,5.1,9.8,5.2,17.7v42.8h-7.2v-42.9c0-5.8-1.3-10.2-3.7-13c-2.4-2.9-6.3-4.3-11.7-4.3c-4.5,0-8.4,1.4-11.8,4.2
			c-3.4,2.8-6,6.6-7.6,11.3v44.7h-7.2v-65.2H570z"/>
		<path class="st0" d="M656.2,428.3c-5.5,0-10.6-1.4-15-4.1c-4.5-2.7-8-6.5-10.5-11.4c-2.5-4.9-3.7-10.4-3.7-16.4v-2.6
			c0-6.3,1.2-11.9,3.6-16.9c2.4-5,5.8-9,10.2-11.8s9-4.3,14.1-4.3c7.9,0,14.2,2.7,18.8,8.1c4.6,5.4,7,12.8,7,22.2v4h-46.5v1.4
			c0,7.4,2.1,13.6,6.4,18.5c4.2,4.9,9.6,7.4,16,7.4c3.9,0,7.3-0.7,10.2-2.1c3-1.4,5.6-3.7,8-6.8l4.5,3.4
			C674,424.4,666.3,428.3,656.2,428.3z M654.9,366.8c-5.4,0-10,2-13.7,6c-3.7,4-6,9.3-6.8,16h39.1V388c-0.2-6.3-2-11.4-5.4-15.3
			C664.8,368.8,660.4,366.8,654.9,366.8z"/>
		<path class="st0" d="M733.8,410.5c0-3.6-1.4-6.4-4.3-8.6c-2.9-2.2-7.2-3.9-13-5.1c-5.8-1.2-10.3-2.6-13.5-4.2
			c-3.2-1.6-5.6-3.5-7.1-5.8c-1.5-2.3-2.3-5.1-2.3-8.3c0-5.1,2.1-9.4,6.4-12.7c4.3-3.4,9.8-5,16.5-5c7.3,0,13.1,1.8,17.5,5.4
			c4.4,3.6,6.6,8.3,6.6,14.1h-7.2c0-3.8-1.6-7-4.8-9.5c-3.2-2.5-7.2-3.8-12.1-3.8c-4.7,0-8.5,1.1-11.4,3.2c-2.9,2.1-4.3,4.9-4.3,8.2
			c0,3.3,1.2,5.8,3.6,7.6c2.4,1.8,6.8,3.4,13.1,4.9c6.3,1.5,11.1,3.1,14.2,4.8c3.2,1.7,5.5,3.7,7,6.1s2.3,5.2,2.3,8.6
			c0,5.5-2.2,9.9-6.7,13.2c-4.4,3.3-10.2,4.9-17.4,4.9c-7.6,0-13.8-1.8-18.5-5.5c-4.7-3.7-7.1-8.3-7.1-14h7.2
			c0.3,4.2,2.1,7.5,5.3,9.9c3.3,2.4,7.6,3.5,13,3.5c5,0,9.1-1.1,12.2-3.3S733.8,413.9,733.8,410.5z"/>
		<path class="st0" d="M796.3,410.5c0-3.6-1.4-6.4-4.3-8.6c-2.9-2.2-7.2-3.9-13-5.1c-5.8-1.2-10.3-2.6-13.5-4.2
			c-3.2-1.6-5.6-3.5-7.1-5.8c-1.5-2.3-2.3-5.1-2.3-8.3c0-5.1,2.1-9.4,6.4-12.7c4.3-3.4,9.8-5,16.5-5c7.3,0,13.1,1.8,17.5,5.4
			c4.4,3.6,6.6,8.3,6.6,14.1h-7.2c0-3.8-1.6-7-4.8-9.5c-3.2-2.5-7.2-3.8-12.1-3.8c-4.7,0-8.5,1.1-11.4,3.2c-2.9,2.1-4.3,4.9-4.3,8.2
			c0,3.3,1.2,5.8,3.6,7.6c2.4,1.8,6.8,3.4,13.1,4.9c6.3,1.5,11.1,3.1,14.2,4.8c3.2,1.7,5.5,3.7,7,6.1s2.3,5.2,2.3,8.6
			c0,5.5-2.2,9.9-6.7,13.2c-4.4,3.3-10.2,4.9-17.4,4.9c-7.6,0-13.8-1.8-18.5-5.5s-7.1-8.3-7.1-14h7.2c0.3,4.2,2.1,7.5,5.3,9.9
			c3.3,2.4,7.6,3.5,13,3.5c5,0,9.1-1.1,12.2-3.3S796.3,413.9,796.3,410.5z"/>
		<path class="st0" d="M864.7,379.2c-3.5-4.2-6-8-7.6-11.3c-1.6-3.3-2.4-6.6-2.4-9.9c0-6.1,1.8-11,5.5-14.6
			c3.7-3.6,8.6-5.4,14.7-5.4c5.6,0,10.1,1.6,13.6,4.9c3.5,3.2,5.2,7.3,5.2,12.3c0,5.8-3.3,11.5-10,17.1l-9.6,7.5l24.1,28.1
			c3.7-5.9,5.5-12.6,5.5-20.1h6.7c0,10-2.6,18.4-7.7,25.3l12,14h-8.7l-7.6-8.8c-3.2,3.1-6.8,5.6-11,7.4c-4.2,1.8-8.5,2.7-13.2,2.7
			c-8.4,0-15-2.1-19.9-6.4c-4.9-4.3-7.4-10-7.4-17.1c0-4.3,1.3-8.3,3.8-12.1c2.5-3.8,6.9-8.1,13.2-12.8L864.7,379.2z M874.1,422.2
			c3.7,0,7.2-0.8,10.6-2.3c3.4-1.5,6.5-3.7,9.3-6.6l-24.5-28.5l-0.8-0.9l-2.8,2.1c-7.9,6.4-11.8,12.7-11.8,18.7
			c0,5.3,1.8,9.5,5.4,12.7C863.1,420.6,868,422.2,874.1,422.2z M861.9,357.8c0,4.9,2.7,10.7,8.1,17.4l7.9-6c2.6-1.8,4.7-3.9,6.3-6.1
			c1.6-2.2,2.5-4.8,2.5-7.8c0-3.1-1.1-5.8-3.3-7.9c-2.2-2.1-5.1-3.2-8.7-3.2c-3.9,0-7.1,1.3-9.4,3.8
			C863.1,350.6,861.9,353.8,861.9,357.8z"/>
		<path class="st0" d="M971.3,412l1.1,5.6l1.4-5.9l15.7-49.9h6.1l15.5,49.5l1.7,6.9l1.4-6.3l13.4-50h7.5l-19,65.2h-6.1l-16.8-51.7
			l-0.8-3.6l-0.8,3.6l-16.5,51.7H969l-18.9-65.2h7.4L971.3,412z"/>
		<path class="st0" d="M1074,428.3c-5.5,0-10.6-1.4-15-4.1c-4.5-2.7-8-6.5-10.5-11.4c-2.5-4.9-3.7-10.4-3.7-16.4v-2.6
			c0-6.3,1.2-11.9,3.6-16.9c2.4-5,5.8-9,10.2-11.8s9-4.3,14.1-4.3c7.9,0,14.2,2.7,18.8,8.1c4.6,5.4,7,12.8,7,22.2v4H1052v1.4
			c0,7.4,2.1,13.6,6.4,18.5c4.2,4.9,9.6,7.4,16,7.4c3.9,0,7.3-0.7,10.2-2.1c3-1.4,5.6-3.7,8-6.8l4.5,3.4
			C1091.8,424.4,1084.1,428.3,1074,428.3z M1072.7,366.8c-5.4,0-10,2-13.7,6c-3.7,4-6,9.3-6.8,16h39.1V388c-0.2-6.3-2-11.4-5.4-15.3
			C1082.6,368.8,1078.2,366.8,1072.7,366.8z"/>
		<path class="st0" d="M1120.6,427.1h-7.2v-92.6h7.2V427.1z"/>
		<path class="st0" d="M1148.3,427.1h-7.2v-92.6h7.2V427.1z"/>
		<path class="st0" d="M1174.8,361.8l0.2,11.2c2.5-4,5.5-7.1,9.2-9.2c3.7-2.1,7.7-3.2,12.1-3.2c7,0,12.2,2,15.6,5.9
			c3.4,3.9,5.1,9.8,5.2,17.7v42.8h-7.2v-42.9c0-5.8-1.3-10.2-3.7-13c-2.4-2.9-6.3-4.3-11.7-4.3c-4.5,0-8.4,1.4-11.8,4.2
			c-3.4,2.8-6,6.6-7.6,11.3v44.7h-7.2v-65.2H1174.8z"/>
		<path class="st0" d="M1261,428.3c-5.5,0-10.6-1.4-15-4.1c-4.5-2.7-8-6.5-10.5-11.4c-2.5-4.9-3.7-10.4-3.7-16.4v-2.6
			c0-6.3,1.2-11.9,3.6-16.9c2.4-5,5.8-9,10.2-11.8s9-4.3,14.1-4.3c7.9,0,14.2,2.7,18.8,8.1c4.6,5.4,7,12.8,7,22.2v4h-46.5v1.4
			c0,7.4,2.1,13.6,6.4,18.5c4.2,4.9,9.6,7.4,16,7.4c3.9,0,7.3-0.7,10.2-2.1c3-1.4,5.6-3.7,8-6.8l4.5,3.4
			C1278.7,424.4,1271.1,428.3,1261,428.3z M1259.6,366.8c-5.4,0-10,2-13.7,6c-3.7,4-6,9.3-6.8,16h39.1V388c-0.2-6.3-2-11.4-5.4-15.3
			C1269.5,368.8,1265.1,366.8,1259.6,366.8z"/>
		<path class="st0" d="M1338.5,410.5c0-3.6-1.4-6.4-4.3-8.6c-2.9-2.2-7.2-3.9-13-5.1c-5.8-1.2-10.3-2.6-13.5-4.2
			c-3.2-1.6-5.6-3.5-7.1-5.8c-1.5-2.3-2.3-5.1-2.3-8.3c0-5.1,2.1-9.4,6.4-12.7c4.3-3.4,9.8-5,16.5-5c7.3,0,13.1,1.8,17.5,5.4
			c4.4,3.6,6.6,8.3,6.6,14.1h-7.2c0-3.8-1.6-7-4.8-9.5c-3.2-2.5-7.2-3.8-12.1-3.8c-4.7,0-8.5,1.1-11.4,3.2c-2.9,2.1-4.3,4.9-4.3,8.2
			c0,3.3,1.2,5.8,3.6,7.6c2.4,1.8,6.8,3.4,13.1,4.9c6.3,1.5,11.1,3.1,14.2,4.8c3.2,1.7,5.5,3.7,7,6.1s2.3,5.2,2.3,8.6
			c0,5.5-2.2,9.9-6.7,13.2c-4.4,3.3-10.2,4.9-17.4,4.9c-7.6,0-13.8-1.8-18.5-5.5s-7.1-8.3-7.1-14h7.2c0.3,4.2,2.1,7.5,5.3,9.9
			c3.3,2.4,7.6,3.5,13,3.5c5,0,9.1-1.1,12.2-3.3S1338.5,413.9,1338.5,410.5z"/>
		<path class="st0" d="M1401,410.5c0-3.6-1.4-6.4-4.3-8.6c-2.9-2.2-7.2-3.9-13-5.1c-5.8-1.2-10.3-2.6-13.5-4.2
			c-3.2-1.6-5.6-3.5-7.1-5.8c-1.5-2.3-2.3-5.1-2.3-8.3c0-5.1,2.1-9.4,6.4-12.7c4.3-3.4,9.8-5,16.5-5c7.3,0,13.1,1.8,17.5,5.4
			c4.4,3.6,6.6,8.3,6.6,14.1h-7.2c0-3.8-1.6-7-4.8-9.5c-3.2-2.5-7.2-3.8-12.1-3.8c-4.7,0-8.5,1.1-11.4,3.2c-2.9,2.1-4.3,4.9-4.3,8.2
			c0,3.3,1.2,5.8,3.6,7.6c2.4,1.8,6.8,3.4,13.1,4.9c6.3,1.5,11.1,3.1,14.2,4.8c3.2,1.7,5.5,3.7,7,6.1s2.3,5.2,2.3,8.6
			c0,5.5-2.2,9.9-6.7,13.2c-4.4,3.3-10.2,4.9-17.4,4.9c-7.6,0-13.8-1.8-18.5-5.5s-7.1-8.3-7.1-14h7.2c0.3,4.2,2.1,7.5,5.3,9.9
			c3.3,2.4,7.6,3.5,13,3.5c5,0,9.1-1.1,12.2-3.3S1401,413.9,1401,410.5z"/>
	</g>
	<g>
		<ellipse class="st0" cx="234.2" cy="121.4" rx="17.2" ry="26.6"/>
		<path class="st0" d="M259.1,144.5h25.7c0,80.7-22.3,80.7-55.8,61.8S165.6,166,144.1,154c-21.5-12-25.7-15.4-36.9-6
			s-13.7-3.9,0-12.9c24-14.2,52.3,4.7,52.3,4.7c81.9,52.8,94.8,45.9,94.8,45.9S268.1,193.4,259.1,144.5z"/>
		<path class="st0" d="M198.2,32.1C88.9,32.1,0,121,0,230.3s88.9,198.2,198.2,198.2s198.2-88.9,198.2-198.2S307.5,32.1,198.2,32.1z
			 M198.2,413.1c-54.3,0-103.2-23.9-136.7-61.6c15-10,99.6-66.2,140.5-83.4c45-18.9,74.6-28.7,41.6,70.4H269
			c27-103,0-115.4-21.5-115.4c-21,0-162.1,82-190.4,123.4c-26-31.6-41.7-72-41.7-116.1c0-100.8,82-182.8,182.8-182.8
			S381,129.6,381,230.3S299,413.1,198.2,413.1z"/>
	</g>
</g>
</svg>
