<?xml version="1.0" encoding="utf-8"?>
<!-- Generator: Adobe Illustrator 19.1.0, SVG Export Plug-In . SVG Version: 6.00 Build 0)  -->
<svg version="1.1" id="Laag_1" xmlns="http://www.w3.org/2000/svg" xmlns:xlink="http://www.w3.org/1999/xlink" x="0px" y="0px"
	 viewBox="0 0 400 400" style="enable-background:new 0 0 400 400;" xml:space="preserve">
<style type="text/css">
	.st0{fill:#FFFFFF;}
</style>
<g>
	<ellipse class="st0" cx="236.4" cy="90" rx="17.3" ry="26.8"/>
	<path class="st0" d="M261.5,113.4h26c0,81.4-22.5,81.4-56.3,62.3s-64.1-40.7-85.7-52.8s-26-15.6-37.2-6.1s-13.9-3.9,0-13
		c24.2-14.3,52.8,4.8,52.8,4.8c82.7,53.2,95.7,46.3,95.7,46.3S270.6,162.8,261.5,113.4z"/>
	<path class="st0" d="M200,0C89.7,0,0,89.7,0,200s89.7,200,200,200s200-89.7,200-200S310.3,0,200,0z M200,384.4
		c-54.8,0-104.1-24.1-137.9-62.2c15.1-10.1,100.5-66.8,141.8-84.1c45.5-19,75.3-29,42,71h25.5c27.3-103.9,0-116.5-21.6-116.5
		c-21.2,0-163.6,82.8-192.1,124.5C31.4,285.3,15.6,244.4,15.6,200C15.6,98.3,98.3,15.6,200,15.6S384.4,98.3,384.4,200
		S301.7,384.4,200,384.4z"/>
</g>
</svg>
