<?xml version="1.0" encoding="utf-8"?>
<!-- Generator: Adobe Illustrator 19.1.0, SVG Export Plug-In . SVG Version: 6.00 Build 0)  -->
<svg version="1.1" id="Laag_1" xmlns="http://www.w3.org/2000/svg" xmlns:xlink="http://www.w3.org/1999/xlink" x="0px" y="0px"
	 viewBox="52 70.9 700 700" style="enable-background:new 52 70.9 700 700;" xml:space="preserve">
<style type="text/css">
	.st0{fill:#6FC349;}
</style>
<g>
	<ellipse class="st0" cx="463.3" cy="235.6" rx="29.2" ry="45.2"/>
	<path class="st0" d="M505.6,275h43.8c0,137.1-37.9,137.1-94.8,105s-108-68.6-144.4-89s-43.8-26.3-62.7-10.2s-23.3-6.6,0-21.9
		c40.8-24.1,89,8,89,8C475.7,356.7,497.6,345,497.6,345S520.9,358.2,505.6,275z"/>
	<path class="st0" d="M402,83.9c-185.8,0-337,151.2-337,337s151.2,337,337,337s337-151.2,337-337S587.8,83.9,402,83.9z M402,731.6
		c-92.4,0-175.4-40.6-232.4-104.8c25.5-17.1,169.3-112.6,239-141.8c76.6-32.1,126.9-48.9,70.8,119.6h43c46-175.1,0-196.2-36.5-196.2
		c-35.7,0-275.6,139.5-323.7,209.8c-44.3-53.7-70.9-122.5-70.9-197.4c0-171.3,139.4-310.7,310.7-310.7s310.7,139.4,310.7,310.7
		S573.3,731.6,402,731.6z"/>
</g>
</svg>
